<svg aria-hidden="true" style="position: absolute; width: 0; height: 0; overflow: hidden;" version="1.1"
    xmlns="http://www.w3.org/2000/svg" xmlns:xlink="http://www.w3.org/1999/xlink">
    <defs>
        <symbol id="icon-Vector-2" viewBox="0 0 64 32">
            <path fill="none" stroke="#45494f" style="stroke: var(--color1, #45494f)" stroke-linejoin="round"
                stroke-linecap="round" stroke-miterlimit="4" stroke-width="10.6667"
                d="M58.667 5.333l-26.667 21.333-26.667-21.333"></path>
        </symbol>
        <symbol id="icon-Group-22" viewBox="0 0 45 32">
            <path fill="#c4c4c4" style="fill: var(--color2, #c4c4c4)"
                d="M2.133 25.6h40.533c1.178 0 2.133 0.955 2.133 2.133v2.133c0 1.178-0.955 2.133-2.133 2.133h-40.533c-1.178 0-2.133-0.955-2.133-2.133v-2.133c0-1.178 0.955-2.133 2.133-2.133z">
            </path>
            <path fill="#c4c4c4" style="fill: var(--color2, #c4c4c4)"
                d="M2.133 12.8h40.533c1.178 0 2.133 0.955 2.133 2.133v2.133c0 1.178-0.955 2.133-2.133 2.133h-40.533c-1.178 0-2.133-0.955-2.133-2.133v-2.133c0-1.178 0.955-2.133 2.133-2.133z">
            </path>
            <path fill="#c4c4c4" style="fill: var(--color2, #c4c4c4)"
                d="M2.133 0h40.533c1.178 0 2.133 0.955 2.133 2.133v2.133c0 1.178-0.955 2.133-2.133 2.133h-40.533c-1.178 0-2.133-0.955-2.133-2.133v-2.133c0-1.178 0.955-2.133 2.133-2.133z">
            </path>
        </symbol>
    </defs>
</svg>