<svg aria-hidden="true" style="position:absolute;width:0;height:0;overflow:hidden" xmlns="http://www.w3.org/2000/svg">
    <defs>
        <symbol id="icon-Vector-2" viewBox="0 0 64 32">
            <path fill="none" stroke-linejoin="round" stroke-linecap="round" stroke-width="10.667"
                d="M58.667 5.333 32 26.666 5.333 5.333" />
        </symbol>
        <symbol id="icon-Group-22" viewBox="0 0 45 32">
            <path fill="#c4c4c4" style="fill:var(--color2, #c4c4c4)"
                d="M2.133 25.6h40.533c1.178 0 2.133.955 2.133 2.133v2.133a2.133 2.133 0 0 1-2.133 2.133H2.133A2.133 2.133 0 0 1 0 29.866v-2.133C0 26.555.955 25.6 2.133 25.6zM2.133 12.8h40.533c1.178 0 2.133.955 2.133 2.133v2.133a2.133 2.133 0 0 1-2.133 2.133H2.133A2.133 2.133 0 0 1 0 17.066v-2.133C0 13.755.955 12.8 2.133 12.8zM2.133 0h40.533c1.178 0 2.133.955 2.133 2.133v2.133a2.133 2.133 0 0 1-2.133 2.133H2.133A2.133 2.133 0 0 1 0 4.266V2.133C0 .955.955 0 2.133 0z" />
        </symbol>
    </defs>
</svg>