<svg aria-hidden="true" style="position:absolute;width:0;height:0;overflow:hidden" xmlns="http://www.w3.org/2000/svg"><defs><symbol id="icon-Group-22" viewBox="0 0 45 32"><path fill="#c4c4c4" style="fill:var(--color1, #c4c4c4)" d="M2.133 25.6h40.533c1.178 0 2.133.955 2.133 2.133v2.133a2.133 2.133 0 0 1-2.133 2.133H2.133A2.133 2.133 0 0 1 0 29.866v-2.133C0 26.555.955 25.6 2.133 25.6zM2.133 12.8h40.533c1.178 0 2.133.955 2.133 2.133v2.133a2.133 2.133 0 0 1-2.133 2.133H2.133A2.133 2.133 0 0 1 0 17.066v-2.133C0 13.755.955 12.8 2.133 12.8zM2.133 0h40.533c1.178 0 2.133.955 2.133 2.133v2.133a2.133 2.133 0 0 1-2.133 2.133H2.133A2.133 2.133 0 0 1 0 4.266V2.133C0 .955.955 0 2.133 0z"/></symbol><symbol id="icon-Geringe-Stellflche" viewBox="0 0 40 32"><path stroke-linejoin="round" stroke-width=".821" d="M14.724.821a.41.41 0 0 0-.41-.41H.821a.41.41 0 0 0-.41.41v8.096c0 .227.184.41.41.41H3.52a.41.41 0 0 0 .41-.41V3.93h10.384a.41.41 0 0 0 .41-.41V.821zM25.108.41a.41.41 0 0 0-.41.41v2.699c0 .227.184.41.41.41h10.384v4.987c0 .227.184.41.41.41h2.699a.41.41 0 0 0 .41-.41V.82a.41.41 0 0 0-.41-.41H25.108zM14.313 31.59a.41.41 0 0 0 .41-.41v-2.698a.41.41 0 0 0-.41-.41H3.929v-4.987a.41.41 0 0 0-.41-.41H.82a.41.41 0 0 0-.41.41v8.096c0 .227.184.41.41.41h13.493zM24.697 31.179c0 .227.184.41.41.41H38.6a.41.41 0 0 0 .41-.41v-8.096a.41.41 0 0 0-.41-.41h-2.699a.41.41 0 0 0-.41.41v4.987H25.107a.41.41 0 0 0-.41.41v2.698z"/></symbol><symbol id="icon-Mit-und-ohne-integrierter-Freikhlung" viewBox="0 0 29 32"><path d="m27.621 22.2-2.46-1.438 2.14-.581a1 1 0 0 0 .697-1.225l-.257-.969a.987.987 0 0 0-1.211-.706l-5.002 1.356L17.022 16l4.512-2.637 5.002 1.356a.99.99 0 0 0 1.211-.706l.257-.969a1.004 1.004 0 0 0-.697-1.225l-2.14-.581 2.46-1.438c.471-.275.634-.887.364-1.369l-.496-.869a.98.98 0 0 0-1.349-.369l-2.46 1.438.571-2.169a1.004 1.004 0 0 0-.697-1.225l-.954-.256a.99.99 0 0 0-1.211.706l-1.337 5.062-4.512 2.637V8.105l3.659-3.706a1.012 1.012 0 0 0 0-1.413l-.697-.706a.98.98 0 0 0-1.393 0l-1.563 1.587V.998c0-.55-.439-1-.985-1h-.985a.993.993 0 0 0-.985 1v2.881l-1.563-1.587a.98.98 0 0 0-1.393 0l-.722.706a1.011 1.011 0 0 0 0 1.412l3.659 3.706v5.281L8.066 10.76 6.729 5.697a.987.987 0 0 0-1.211-.706l-.954.256a1 1 0 0 0-.697 1.225l.571 2.169-2.46-1.438a.982.982 0 0 0-1.349.369l-.496.869A1.01 1.01 0 0 0 .497 9.81l2.46 1.438-2.14.569a1 1 0 0 0-.697 1.225l.257.969a.987.987 0 0 0 1.211.706l5.002-1.356 4.512 2.638-4.512 2.637-5.002-1.356a.99.99 0 0 0-1.211.706l-.257.969a1.004 1.004 0 0 0 .697 1.225l2.14.581-2.46 1.438a1.014 1.014 0 0 0-.364 1.369l.496.869a.98.98 0 0 0 1.349.369l2.46-1.438-.571 2.169a1.004 1.004 0 0 0 .697 1.225l.954.256a.99.99 0 0 0 1.211-.706l1.337-5.063 4.512-2.637v5.281l-3.659 3.706a1.012 1.012 0 0 0 0 1.413l.697.706a.98.98 0 0 0 1.393 0l1.563-1.587V31c0 .55.439 1 .985 1h.985c.546 0 .985-.45.985-1v-2.881l1.563 1.587a.979.979 0 0 0 1.393 0L19.18 29a1.012 1.012 0 0 0 0-1.413l-3.659-3.706V18.6l4.512 2.637L21.37 26.3a.987.987 0 0 0 1.211.706l.954-.256a1 1 0 0 0 .697-1.225l-.571-2.169 2.46 1.438a.982.982 0 0 0 1.349-.369l.496-.869a.974.974 0 0 0-.345-1.356z"/></symbol><symbol id="icon-Fr-Auentemperaturen-bis-55C" viewBox="0 0 31 32"><path d="M15.72 9.825c-3.248 0-5.895 2.647-5.895 5.895s2.647 5.895 5.895 5.895c3.248 0 5.895-2.647 5.895-5.895s-2.647-5.895-5.895-5.895zm15.131 4.943-5.815-2.905 2.057-6.165c.276-.835-.516-1.627-1.345-1.345L19.583 6.41 16.672.589a1.063 1.063 0 0 0-1.904 0l-2.905 5.815-6.171-2.057c-.835-.276-1.627.516-1.345 1.345l2.057 6.165-5.815 2.911a1.063 1.063 0 0 0 0 1.904l5.815 2.904-2.057 6.171c-.276.835.516 1.627 1.345 1.345l6.165-2.057 2.905 5.815a1.063 1.063 0 0 0 1.904 0l2.905-5.815 6.165 2.057c.835.276 1.627-.516 1.345-1.345l-2.057-6.165 5.815-2.905c.798-.399.798-1.517.012-1.91zm-9.574 6.509c-3.064 3.064-8.05 3.064-11.115 0s-3.064-8.05 0-11.115c3.064-3.064 8.05-3.064 11.115 0s3.064 8.05 0 11.115z"/></symbol><symbol id="icon-Fr-Auen--und-Innenaufstellung-erhltlich" viewBox="0 0 54 32"><path d="M43.974 5.573a.819.819 0 0 0-1.36 0l-4.903 7.354a.815.815 0 0 0 .68 1.27h.16l-3.304 5.287a.824.824 0 0 0-.022.83.814.814 0 0 0 .715.421h.312l-2.677 5.354a.824.824 0 0 0 .035.795.817.817 0 0 0 .695.388h7.354v4.086h3.268v-4.086h7.354a.818.818 0 0 0 .73-1.183l-2.675-5.354h.312a.819.819 0 0 0 .693-1.251l-3.306-5.287h.16a.817.817 0 0 0 .68-1.27l-4.903-7.354zM29.767 14.067V28.72c0 .46-.122.91-.353 1.305s-.561.718-.957.936c-.358.198-.76.3-1.168.294h-7.451c-.329 0-.644-.134-.877-.371s-.363-.56-.363-.897v-7.608c0-.336-.131-.659-.363-.897s-.548-.371-.877-.371h-4.961c-.329 0-.644.134-.877.371s-.363.56-.363.897v7.608c0 .336-.131.659-.363.897s-.548.371-.877.371H2.481c-.352.001-.699-.075-1.02-.223s-.607-.364-.839-.634A2.645 2.645 0 0 1 0 28.661V14.066c0-.353.073-.703.212-1.026s.344-.613.6-.851L13.214.662c.456-.427 1.051-.663 1.669-.663s1.213.236 1.669.663l12.404 11.527c.255.238.46.528.599.851s.212.672.212 1.026z"/></symbol><symbol id="icon-Betriebsbereit-bei-Anlieferung" viewBox="0 0 44 32"><path d="M33.719 28.656c1.646 0 2.975-1.324 2.975-2.964s-1.329-2.964-2.975-2.964c-1.646 0-2.975 1.324-2.975 2.964s1.329 2.964 2.975 2.964zm2.975-17.786h-4.959v4.941h8.846l-3.888-4.941zM9.917 28.656c1.646 0 2.975-1.324 2.975-2.964s-1.329-2.964-2.975-2.964c-1.646 0-2.975 1.324-2.975 2.964s1.329 2.964 2.975 2.964zM37.686 7.905l5.95 7.905v9.881h-3.967c0 3.281-2.658 5.929-5.95 5.929s-5.95-2.648-5.95-5.929H15.868c0 3.281-2.658 5.929-5.95 5.929s-5.95-2.648-5.95-5.929H.001V3.952A3.946 3.946 0 0 1 3.968-.001h27.769v7.905h5.95zM3.967 3.953V21.74h1.507a5.985 5.985 0 0 1 8.886 0h13.408V3.953H3.966zm3.967 8.893 2.975-2.964 2.975 2.964 6.942-6.917 2.975 2.964-9.917 9.881-5.95-5.929z"/></symbol><symbol id="icon-Automatische-Freikhlschaltung-fr-verringerten-Energieverbrauch" viewBox="0 0 31 32"><path d="M10.868 5C7.599 5 4.94 7.691 4.94 11c0 .553.442 1 .988 1s.988-.448.988-1c0-2.206 1.773-4 3.952-4 .546 0 .988-.448.988-1s-.442-1-.988-1zM5.932 28.699c0 .197.057.389.166.552l1.513 2.303a.984.984 0 0 0 .823.446h4.869c.331 0 .64-.168.823-.446l1.513-2.303c.107-.164.165-.356.166-.552L15.808 26H5.931l.002 2.699zM10.868 0C4.552 0 0 5.186 0 11c0 2.773 1.016 5.303 2.69 7.236 1.028 1.187 2.639 3.675 3.237 5.76V24h2.964v-.008a2.978 2.978 0 0 0-.133-.879C8.413 22 7.349 19.065 4.919 16.258a8.036 8.036 0 0 1-1.952-5.259 7.92 7.92 0 0 1 7.901-8c4.358 0 7.904 3.589 7.904 8a8.034 8.034 0 0 1-1.954 5.259c-2.415 2.788-3.484 5.717-3.835 6.841-.091.289-.137.59-.137.894v.006h2.964v-.003c.598-2.086 2.209-4.574 3.237-5.76a11.024 11.024 0 0 0 2.689-7.237c0-6.075-4.866-11-10.868-11zM30.136 16.508a.348.348 0 0 0-.623-.025 3.8 3.8 0 0 1-3.3 1.857h-1.761c-2.334 0-4.227 1.825-4.227 4.075 0 .149.018.291.033.435 1.404-.97 3.432-1.793 6.307-1.793.194 0 .352.153.352.34s-.159.34-.352.34c-5.535 0-7.881 3.271-8.401 4.499a.67.67 0 0 0 .385.883.715.715 0 0 0 .92-.367c.033-.076.46-1.017 1.583-1.923a4.278 4.278 0 0 0 3.85 1.638c3.456-.242 5.889-3.23 5.889-6.889 0-1.065-.238-2.169-.656-3.069z"/></symbol><symbol id="icon-Robustes-Gehuse-fr-Auenaufstellung" viewBox="0 0 31 32"><path d="M17.309 28.329a1.575 1.575 0 0 1 1.113 2.687 1.574 1.574 0 1 1-1.113-2.687zm-5.508-1.574a1.575 1.575 0 0 1 1.113 2.687 1.574 1.574 0 1 1-1.113-2.687zm11.017 0a1.575 1.575 0 0 1 1.113 2.687 1.574 1.574 0 1 1-1.113-2.687zM17.312 6.31c4.986 0 7.816 3.3 8.226 7.287h.126a5.803 5.803 0 0 1 5.81 5.797 5.796 5.796 0 0 1-1.705 4.101 5.8 5.8 0 0 1-4.105 1.694H8.958a5.795 5.795 0 0 1-4.105-1.694 5.815 5.815 0 0 1-1.705-4.101 5.797 5.797 0 0 1 3.588-5.358 5.8 5.8 0 0 1 2.222-.439h.126c.414-4.013 3.242-7.287 8.228-7.287zm-13.59 6.539a1.181 1.181 0 0 1-.494 1.471l-.145.071-1.457.604A1.18 1.18 0 0 1 .58 12.886l.143-.072 1.457-.604a1.187 1.187 0 0 1 .904 0 1.176 1.176 0 0 1 .639.639zm10.21-7.606-.269.091c-2.809.992-4.821 3.156-5.689 6.017l-.112.393-.091.375-.324.061a7.3 7.3 0 0 0-2.628 1.124 6.2 6.2 0 0 1 1.253-7.767 6.207 6.207 0 0 1 7.862-.295zm-12.454.048.165.055L3.1 5.95a1.181 1.181 0 0 1 .115 2.119c-.26.144-.563.185-.852.115l-.167-.053-1.457-.604a1.182 1.182 0 0 1-.116-2.121c.26-.144.565-.184.853-.113v-.002zM7.482.592l.071.143.604 1.457a1.18 1.18 0 0 1-2.109 1.047l-.072-.145-.604-1.457A1.185 1.185 0 0 1 5.94.134a1.18 1.18 0 0 1 1.541.457h.002zM14.333.09a1.178 1.178 0 0 1 .692 1.377l-.053.165-.604 1.457a1.181 1.181 0 0 1-2.119.115 1.181 1.181 0 0 1-.115-.852l.055-.167.603-1.457a1.176 1.176 0 0 1 1.091-.729c.155 0 .309.031.452.09z"/></symbol><symbol id="icon-Geringe-Schallemissionen" viewBox="0 0 42 32"><path d="M17.502.587 10.26 8H1.953C.874 8 0 8.895 0 10v12c0 1.104.874 2 1.953 2h8.307l7.242 7.413c1.223 1.252 3.335.372 3.335-1.414V2.002c0-1.788-2.113-2.665-3.335-1.414zM37.575 16l3.715-3.803a1.368 1.368 0 0 0 0-1.902l-1.857-1.902a1.292 1.292 0 0 0-1.857 0l-3.715 3.803-3.715-3.803a1.292 1.292 0 0 0-1.857 0l-1.857 1.902a1.368 1.368 0 0 0 0 1.902L30.147 16l-3.714 3.803a1.368 1.368 0 0 0 0 1.902l1.857 1.902a1.292 1.292 0 0 0 1.857 0l3.714-3.803 3.715 3.803a1.292 1.292 0 0 0 1.857 0l1.857-1.902a1.368 1.368 0 0 0 0-1.902L37.575 16z"/></symbol><symbol id="icon-Wetterfest-und-Langlebig" viewBox="0 0 32 32"><path d="M22.4 11.2h4.8l-8 11.2 3.2-11.2zm-9.6 0h6.4L16 24l-3.2-12.8zm-8 0h4.8l3.2 11.2-8-11.2zm16-8H24L27.2 8h-4.8l-1.6-4.8zm-6.4 0h3.2L19.2 8h-6.4l1.6-4.8zM8 3.2h3.2L9.6 8H4.8L8 3.2zM6.4 0 0 9.6 16 32 32 9.6 25.6 0H6.4z"/></symbol><symbol id="icon-Erhhte-Betriebssicherheit" viewBox="0 0 30 32"><path d="m27.888 5.23-11.886-5a2.949 2.949 0 0 0-2.284 0l-11.886 5A2.997 2.997 0 0 0 0 7.999C0 20.406 7.088 28.982 13.712 31.77c.73.306 1.554.306 2.284 0 5.305-2.232 13.718-9.938 13.718-23.771a3.001 3.001 0 0 0-1.826-2.769zM14.863 27.895 14.857 4.08l10.889 4.582c-.204 9.463-5.082 16.32-10.883 19.233z"/></symbol></defs></svg>